<?xml version="1.0" standalone="no"?>
<!DOCTYPE svg PUBLIC "-//W3C//DTD SVG 20010904//EN"
 "http://www.w3.org/TR/2001/REC-SVG-20010904/DTD/svg10.dtd">
<svg version="1.0" xmlns="http://www.w3.org/2000/svg"
 width="785.000000pt" height="785.000000pt" viewBox="0 0 785.000000 785.000000"
 preserveAspectRatio="xMidYMid meet">
<metadata>
Created by potrace 1.14, written by Peter Selinger 2001-2017
</metadata>
<g transform="translate(0.000000,785.000000) scale(0.100000,-0.100000)"
fill="#000000" stroke="none">
<path d="M4690 7243 c0 -5 -15 -10 -32 -11 -52 -2 -72 -8 -76 -21 -3 -9 -7 -9
-18 0 -11 9 -14 9 -14 0 0 -7 -4 -10 -8 -7 -5 3 -27 -2 -51 -10 -23 -8 -47
-12 -52 -9 -5 4 -9 1 -9 -5 0 -7 -7 -10 -15 -6 -8 3 -15 1 -15 -4 0 -9 -66
-26 -87 -22 -7 2 -13 -4 -13 -12 0 -10 -6 -13 -15 -10 -10 4 -15 0 -15 -11 0
-9 -4 -13 -10 -10 -5 3 -10 1 -10 -5 0 -7 -8 -9 -20 -5 -11 4 -20 2 -20 -4 0
-6 -7 -11 -15 -11 -8 0 -15 -5 -15 -11 0 -5 -4 -7 -10 -4 -6 3 -10 -4 -10 -17
0 -17 -3 -19 -9 -9 -7 11 -16 8 -42 -18 -19 -17 -42 -34 -51 -37 -10 -3 -18
-10 -18 -15 0 -5 -6 -9 -14 -9 -7 0 -16 -9 -19 -21 -3 -12 -10 -18 -16 -14 -6
3 -11 -1 -11 -9 0 -9 -5 -16 -11 -16 -19 0 -39 -28 -39 -57 0 -27 -29 -63 -50
-63 -14 0 -69 62 -70 78 0 7 -11 24 -25 38 -14 13 -24 28 -24 32 4 23 -4 32
-26 32 -18 0 -23 4 -19 15 4 8 2 15 -4 15 -10 0 -22 -23 -22 -40 0 -5 12 -11
28 -13 15 -2 8 -4 -16 -3 -39 1 -42 3 -39 26 2 14 2 19 0 12 -3 -8 -11 -11
-19 -8 -8 3 -14 1 -14 -5 0 -6 -5 -7 -10 -4 -6 4 -18 1 -26 -6 -12 -10 -13 -9
-8 5 3 9 1 16 -5 16 -7 0 -14 -7 -17 -15 -4 -8 -10 -12 -15 -9 -5 3 -7 10 -4
15 4 5 1 9 -4 9 -6 0 -11 -4 -11 -10 0 -5 -4 -10 -10 -10 -5 0 -6 8 -3 18 6
15 5 15 -11 3 -14 -12 -19 -12 -26 -1 -5 7 -18 11 -34 8 -14 -3 -26 -1 -26 5
0 5 -7 4 -15 -3 -12 -10 -15 -10 -15 4 0 9 -4 16 -10 16 -5 0 -10 -8 -10 -17
0 -15 -2 -14 -14 3 -14 18 -15 18 -22 1 -5 -15 -9 -16 -15 -5 -7 9 -11 10 -16
2 -5 -7 -23 -10 -40 -8 -18 2 -33 0 -33 -5 0 -4 -21 -6 -46 -4 -32 3 -50 0
-55 -9 -7 -10 -9 -10 -9 0 0 6 -4 12 -10 12 -5 0 -10 -7 -10 -16 0 -8 -5 -12
-10 -9 -6 4 -8 11 -5 16 4 5 2 9 -4 9 -5 0 -12 -8 -14 -17 -4 -16 -5 -16 -6 1
-1 12 -6 16 -16 12 -8 -3 -15 -2 -15 3 0 4 -20 7 -45 7 -25 -1 -45 -5 -45 -10
0 -4 -7 -6 -15 -2 -8 3 -15 0 -15 -6 0 -7 -6 -6 -16 3 -13 10 -17 10 -24 0 -6
-11 -9 -11 -14 0 -5 11 -7 11 -12 2 -3 -7 -12 -13 -20 -13 -16 0 -19 -17 -4
-22 6 -2 6 -8 0 -18 -9 -13 -11 -13 -21 0 -9 13 -10 12 -5 -3 3 -10 -3 -26
-15 -38 -12 -12 -18 -27 -15 -36 4 -11 2 -13 -9 -9 -9 3 -15 0 -15 -8 0 -15
-21 -26 -51 -26 -11 0 -19 -7 -19 -17 0 -13 -2 -15 -8 -5 -12 19 -42 3 -42
-22 0 -17 -2 -18 -10 -6 -6 10 -10 11 -10 3 0 -7 -7 -13 -15 -13 -9 0 -15 -9
-15 -21 0 -19 -2 -20 -17 -8 -15 12 -16 12 -11 -7 4 -17 2 -20 -13 -17 -12 3
-26 -4 -39 -18 -12 -15 -19 -19 -20 -10 0 7 -10 1 -22 -15 -12 -16 -27 -32
-33 -36 -6 -5 -6 -8 3 -8 6 0 12 -5 12 -11 0 -6 -7 -8 -16 -5 -25 9 -66 -42
-53 -66 11 -20 25 -23 34 -8 3 6 10 10 16 10 14 0 11 -28 -3 -33 -9 -3 -7 -10
7 -21 11 -8 15 -16 8 -16 -6 0 -15 5 -18 10 -14 23 -26 8 -19 -26 5 -27 4 -35
-5 -30 -6 4 -11 0 -11 -9 0 -11 -5 -15 -15 -11 -9 3 -15 -1 -15 -11 0 -13 -3
-13 -15 -3 -11 9 -15 9 -15 1 0 -7 -4 -10 -10 -6 -16 10 -60 -7 -61 -24 0 -10
-2 -11 -6 -3 -7 17 -23 15 -23 -3 0 -9 -6 -12 -15 -9 -8 4 -15 1 -15 -5 0 -6
-7 -8 -15 -5 -10 4 -15 0 -15 -11 0 -9 -4 -14 -9 -10 -5 3 -12 1 -16 -5 -4 -6
-11 -8 -16 -5 -5 4 -12 -1 -15 -9 -3 -9 -10 -13 -15 -10 -5 3 -9 -2 -9 -11 0
-11 -5 -15 -15 -11 -9 3 -15 0 -15 -9 0 -9 -6 -12 -15 -9 -8 4 -15 1 -15 -6 0
-7 -8 -9 -20 -5 -16 5 -19 3 -13 -11 5 -13 3 -16 -10 -11 -9 3 -17 3 -17 -2 0
-5 -9 -11 -20 -14 -22 -6 -26 3 -9 20 6 6 8 16 5 22 -11 17 -26 13 -20 -4 4
-10 0 -15 -15 -15 -12 0 -21 -5 -21 -11 0 -8 -6 -7 -17 2 -15 13 -15 12 -4 -9
12 -22 11 -23 -9 -17 -17 5 -20 4 -15 -6 6 -9 2 -11 -13 -7 -15 4 -22 2 -22
-8 0 -17 -17 -18 -23 -1 -3 7 -6 5 -6 -5 -1 -11 -6 -15 -16 -12 -23 9 -18 -13
7 -30 12 -9 18 -19 14 -23 -4 -4 -11 -2 -15 5 -9 16 -61 12 -78 -5 -7 -6 -10
-19 -7 -27 7 -17 -11 -22 -21 -6 -3 6 -11 10 -17 10 -7 0 -7 -4 1 -13 14 -18
2 -30 -16 -15 -11 8 -12 7 -7 -6 4 -11 1 -16 -10 -16 -9 0 -16 -5 -16 -11 0
-5 -4 -8 -9 -4 -19 11 -20 -13 -1 -30 27 -24 25 -43 -8 -95 -2 -2 -7 2 -12 10
-6 10 -3 18 11 28 25 17 24 36 -4 55 -18 12 -24 12 -35 1 -17 -18 -15 -24 5
-17 10 3 5 -6 -12 -21 -16 -14 -36 -24 -43 -21 -8 3 -12 -2 -10 -13 2 -11 -3
-16 -13 -14 -21 3 -33 -26 -18 -44 10 -12 8 -13 -11 -6 -28 10 -61 -13 -52
-36 3 -10 1 -13 -6 -8 -6 3 -13 2 -17 -4 -3 -5 -1 -10 5 -10 6 0 8 -5 5 -11
-4 -6 -13 -8 -20 -5 -14 5 -30 -38 -20 -54 3 -5 -4 -7 -16 -5 -19 4 -21 1 -16
-24 3 -15 1 -33 -6 -40 -6 -6 -8 -11 -4 -11 4 0 -6 -13 -23 -30 -16 -16 -30
-36 -30 -44 0 -8 -5 -18 -10 -21 -6 -4 -8 -11 -4 -16 3 -6 -2 -9 -12 -7 -12 2
-19 -3 -19 -12 0 -8 -8 -18 -18 -22 -13 -6 -16 -14 -12 -28 5 -15 2 -20 -12
-20 -13 0 -15 -2 -5 -9 11 -6 10 -11 -3 -25 -9 -9 -13 -16 -9 -16 4 0 -2 -8
-13 -17 -11 -10 -18 -24 -16 -30 3 -7 -1 -13 -7 -13 -7 0 -10 -6 -7 -14 3 -7
0 -19 -6 -25 -7 -7 -7 -11 -1 -11 6 0 9 -13 6 -29 -2 -16 2 -39 9 -52 18 -32
19 -60 3 -76 -7 -8 -10 -21 -7 -30 5 -13 2 -15 -15 -11 -24 7 -32 -16 -9 -25
8 -4 6 -6 -4 -6 -12 -1 -15 -8 -12 -25 3 -13 -1 -27 -8 -31 -9 -6 -11 -3 -6 8
3 9 0 18 -9 21 -10 4 -14 -3 -14 -24 0 -24 -4 -30 -21 -30 -11 0 -17 -4 -14
-10 3 -5 -3 -17 -14 -27 -11 -9 -18 -20 -15 -25 3 -4 -1 -11 -9 -13 -9 -4 -12
-16 -9 -37 4 -27 2 -30 -14 -24 -14 5 -16 4 -8 -4 15 -15 37 -4 57 28 12 19
17 22 17 10 0 -22 -21 -68 -32 -68 -14 0 -9 -37 7 -50 12 -10 15 -10 15 1 1 9
8 5 20 -10 17 -19 23 -21 35 -11 12 10 15 10 15 -2 0 -12 10 -15 40 -12 30 3
38 0 34 -10 -3 -8 -1 -17 5 -20 5 -4 15 10 22 29 7 19 17 35 22 35 5 0 7 7 3
15 -3 8 -1 15 4 15 13 0 13 -7 -2 -47 -13 -35 -7 -50 14 -37 7 5 18 9 23 10 6
1 18 5 28 9 20 8 22 -3 5 -42 -6 -15 -12 -30 -12 -33 -1 -3 -5 -11 -9 -17 -5
-8 -3 -13 4 -13 7 0 4 -7 -7 -15 -10 -8 -16 -15 -11 -15 4 0 1 -15 -7 -34 -8
-19 -12 -37 -8 -40 3 -3 0 -6 -7 -6 -8 0 -10 -7 -6 -21 5 -16 4 -19 -5 -14 -9
6 -11 4 -5 -4 4 -8 -13 -32 -49 -67 -30 -30 -52 -54 -48 -54 4 0 -5 -11 -20
-24 -16 -13 -28 -27 -28 -31 0 -5 -7 -16 -16 -26 -8 -9 -16 -26 -17 -37 0 -11
-5 -18 -9 -16 -4 3 -8 0 -8 -5 0 -6 -6 -11 -14 -11 -15 0 -17 -31 -3 -41 5 -4
-3 -9 -18 -13 -18 -5 -25 -12 -21 -21 3 -8 1 -17 -5 -20 -5 -4 -7 -11 -4 -16
4 -5 -1 -12 -9 -15 -9 -3 -14 -10 -11 -14 3 -5 -1 -14 -8 -22 -8 -7 -12 -19
-9 -26 2 -6 -1 -12 -8 -12 -6 0 -8 -4 -5 -10 3 -5 2 -10 -2 -10 -5 0 -17 -19
-28 -41 -32 -67 -39 -79 -48 -79 -4 0 -5 -4 -2 -10 3 -5 -3 -29 -14 -52 -18
-39 -18 -44 -3 -49 13 -5 12 -7 -6 -11 -12 -4 -22 -11 -22 -18 0 -6 6 -8 13
-5 6 4 4 0 -5 -8 -10 -8 -15 -16 -13 -19 3 -3 -1 -17 -9 -33 -13 -25 -12 -29
15 -58 30 -31 37 -49 17 -44 -6 1 -17 -8 -23 -20 -7 -13 -15 -21 -19 -18 -3 3
1 -3 9 -13 13 -14 17 -15 24 -3 7 10 9 6 8 -12 -2 -24 -17 -40 -17 -18 0 5 -9
11 -20 14 -23 6 -25 -1 -7 -24 7 -9 18 -14 25 -12 12 5 17 -9 6 -19 -3 -3 -22
-2 -42 3 -36 7 -36 7 -16 -9 20 -17 20 -18 2 -47 -22 -37 -24 -80 -4 -72 10 4
13 1 9 -9 -4 -11 0 -15 13 -12 12 2 19 -4 21 -17 1 -11 0 -14 -3 -7 -7 15 -24
16 -24 2 0 -17 38 -53 49 -46 5 4 12 2 16 -4 9 -15 25 -12 25 4 0 7 -10 17
-22 21 l-23 8 23 4 c29 6 28 16 -3 33 -13 7 -21 18 -18 23 4 6 0 8 -10 4 -11
-4 -14 -2 -10 9 5 13 11 10 34 -13 45 -44 68 -63 79 -63 5 0 10 -8 10 -17 0
-13 3 -14 11 -6 15 15 39 5 39 -16 0 -14 -2 -14 -10 -1 -18 28 -31 -3 -14 -34
10 -20 11 -32 4 -36 -7 -5 -6 -11 5 -20 19 -16 19 -27 -2 -48 -14 -15 -14 -17
-2 -20 11 -2 14 -12 11 -32 -3 -19 2 -35 14 -47 16 -17 16 -18 0 -21 -15 -3
-34 -54 -28 -76 2 -5 -3 -13 -10 -17 -8 -6 -9 -9 -2 -9 7 0 15 -7 18 -16 4
-11 2 -15 -7 -11 -11 4 -12 -3 -7 -34 5 -27 3 -44 -6 -56 -15 -20 -19 -73 -5
-73 5 0 12 -12 16 -27 8 -32 44 -75 56 -67 5 3 9 0 9 -5 0 -14 27 -14 35 0 4
6 -1 17 -11 25 -18 15 -18 15 -1 10 10 -3 23 -6 28 -6 5 0 9 -5 9 -11 0 -6 7
-17 15 -25 8 -9 15 -11 15 -5 0 13 32 51 43 51 4 0 5 -5 1 -11 -4 -8 0 -8 15
0 17 9 20 17 14 39 -6 24 -5 26 10 13 21 -17 21 -10 2 36 -11 27 -12 38 -4 44
8 5 7 8 -2 12 -9 4 -10 8 -4 14 10 8 13 21 18 70 1 13 6 23 11 23 4 0 6 6 3
14 -4 10 0 12 14 9 28 -8 32 -19 12 -38 -14 -14 -14 -18 -2 -26 10 -6 10 -9 2
-9 -9 0 -11 -11 -7 -33 6 -38 6 -33 -4 -119 -4 -38 -4 -68 1 -68 4 0 6 -4 2
-9 -9 -16 -13 -91 -4 -85 5 3 8 -11 7 -30 -2 -20 -6 -36 -10 -36 -5 0 -8 -7
-8 -15 0 -8 -5 -15 -12 -15 -6 0 -3 -7 8 -15 14 -11 15 -14 4 -15 -15 0 -21
-37 -24 -150 0 -25 -5 -48 -11 -52 -6 -4 -1 -8 10 -8 17 -1 18 -2 5 -13 -19
-15 -21 -90 -2 -82 17 6 15 -5 -5 -28 -15 -17 -15 -19 -3 -15 16 6 17 -1 7
-99 -2 -18 0 -33 4 -33 4 0 10 -7 13 -16 4 -10 2 -13 -7 -8 -8 5 -7 2 2 -9 11
-14 11 -17 0 -17 -12 0 -12 -2 0 -9 7 -5 10 -14 7 -20 -4 -6 -3 -11 1 -11 5 0
17 -29 27 -65 10 -36 21 -65 25 -65 4 0 14 -15 24 -33 26 -47 84 -110 95 -103
6 3 13 0 15 -6 4 -10 6 -10 6 0 1 7 5 10 11 7 5 -3 10 1 10 10 0 9 5 13 11 10
6 -4 8 -12 6 -19 -3 -6 4 -12 15 -12 13 0 18 6 15 17 -3 11 0 16 8 13 7 -3 20
2 29 11 9 9 16 12 16 6 0 -6 5 -11 10 -11 6 0 10 14 10 30 0 17 -4 30 -10 30
-5 0 -10 7 -10 16 0 14 3 14 15 4 19 -16 19 -9 -2 51 -10 27 -25 51 -33 54
-18 6 -40 50 -40 82 0 13 -6 23 -12 23 -9 0 -9 3 1 9 12 8 12 12 2 25 -11 13
-11 16 0 16 11 0 11 2 -1 10 -12 7 -11 12 5 30 15 17 16 23 6 29 -9 6 -10 11
-2 15 6 4 16 4 23 0 6 -4 8 -3 4 4 -3 6 11 20 34 33 31 18 37 25 28 36 -8 11
-7 12 6 7 11 -4 15 -12 11 -23 -17 -42 -12 -63 22 -95 24 -21 34 -38 31 -51
-4 -17 -7 -16 -18 10 -8 17 -15 31 -16 33 0 1 -9 0 -18 -4 -12 -5 -14 -10 -6
-19 6 -7 8 -20 4 -29 -3 -9 -2 -16 3 -16 5 0 9 -10 8 -22 -2 -24 20 -74 37
-84 6 -4 5 -10 -3 -15 -10 -6 -8 -9 9 -9 24 0 29 19 10 38 -18 18 -2 26 21 10
18 -13 19 -17 6 -35 -15 -22 -11 -33 13 -33 8 0 12 6 9 13 -3 8 -2 19 2 26 5
7 8 -1 9 -20 l1 -32 -47 6 c-41 6 -45 5 -29 -7 14 -11 15 -15 5 -19 -7 -3 -3
-6 10 -6 13 -1 20 3 17 9 -3 6 -1 10 5 10 6 0 9 -8 6 -18 -4 -13 0 -18 16 -19
11 -1 25 -8 29 -14 6 -10 11 -10 23 0 9 8 16 10 16 6 0 -4 -8 -13 -17 -20 -14
-10 -15 -16 -5 -27 6 -8 9 -18 5 -21 -12 -13 -18 -7 -20 19 -1 32 -9 40 -51
49 -20 4 -32 3 -32 -4 0 -6 7 -11 15 -11 8 0 15 -4 15 -10 0 -5 -4 -10 -10
-10 -5 0 -10 -5 -10 -11 0 -8 4 -8 14 0 10 8 16 9 21 1 3 -6 11 -8 16 -5 5 4
9 2 9 -4 0 -5 -6 -12 -12 -14 -8 -4 -4 -8 10 -12 12 -4 22 -12 22 -17 0 -6 -6
-8 -13 -5 -19 7 -37 -36 -22 -56 11 -15 15 -14 48 3 44 24 60 26 29 4 -28 -19
-30 -39 -3 -24 34 18 47 11 16 -10 -19 -12 -32 -16 -36 -9 -3 6 -14 9 -24 7
-16 -3 -16 -4 2 -26 l18 -23 28 21 c15 12 27 17 27 12 0 -5 10 -12 22 -16 22
-5 22 -6 3 -20 -18 -14 -19 -15 -2 -16 10 0 15 -4 12 -10 -3 -5 1 -10 10 -10
8 0 18 -8 22 -17 9 -26 45 -63 54 -57 5 3 9 1 9 -5 0 -5 -5 -11 -10 -13 -6 -2
-4 -13 6 -26 10 -14 22 -21 31 -17 13 5 14 3 3 -11 -12 -13 -11 -17 1 -24 10
-7 16 -4 21 8 5 14 7 13 7 -5 1 -24 15 -31 26 -13 7 11 48 -41 73 -91 22 -42
60 -81 72 -74 7 5 9 -2 4 -20 -6 -26 -6 -27 17 -15 20 10 22 10 12 -1 -30 -31
-8 -39 27 -9 29 25 33 25 25 -2 -6 -17 -4 -20 9 -15 9 4 16 2 16 -3 0 -6 -6
-10 -14 -10 -14 0 -33 -37 -24 -45 2 -3 22 11 43 30 39 33 62 41 31 10 -9 -9
-14 -21 -10 -26 3 -5 2 -9 -3 -8 -4 1 -16 -1 -26 -6 -17 -7 -17 -9 -1 -26 16
-18 18 -18 36 -3 20 19 25 5 6 -14 -9 -9 -9 -15 0 -24 9 -9 12 -9 12 0 0 7 4
12 10 12 5 0 7 -7 4 -15 -5 -11 -2 -13 12 -8 13 5 16 3 11 -10 -8 -21 6 -22
23 -2 7 8 8 15 2 15 -5 0 -12 9 -15 21 -3 12 -10 18 -15 15 -8 -5 -22 14 -22
30 0 8 45 -21 58 -38 15 -21 38 -23 46 -5 3 6 3 2 0 -10 -3 -13 -1 -23 5 -23
6 0 11 6 11 13 0 9 11 12 33 9 35 -4 82 27 75 49 -3 9 -11 6 -26 -9 -12 -12
-22 -18 -22 -14 0 13 56 63 63 56 3 -3 3 4 0 15 -3 12 -9 24 -14 27 -19 11 -8
26 15 20 15 -4 26 -1 30 7 3 6 3 -1 1 -17 -2 -16 -2 -26 1 -24 6 7 74 -61 74
-74 0 -5 4 -7 9 -3 6 3 14 -3 20 -12 9 -17 10 -17 16 -1 4 10 12 15 17 12 6
-4 5 -10 -3 -15 -7 -4 -10 -11 -6 -15 3 -4 13 -1 21 5 11 9 16 9 22 0 4 -8 3
-9 -4 -5 -7 4 -12 2 -12 -3 0 -6 7 -11 15 -11 8 0 15 -6 15 -14 0 -8 13 -17
30 -21 16 -4 32 -11 35 -16 4 -5 15 -4 28 3 19 10 21 9 9 -4 -8 -10 -9 -19 -3
-22 5 -4 13 -1 17 5 4 8 9 7 15 -2 8 -12 11 -11 19 1 8 12 10 11 10 -7 0 -26
10 -29 29 -10 10 8 12 8 7 0 -3 -6 -2 -14 4 -18 6 -3 13 2 17 12 6 16 8 15 13
-6 5 -22 7 -23 22 -8 22 23 27 21 21 -5 -4 -20 -3 -21 7 -5 13 21 34 23 26 2
-3 -9 0 -15 9 -15 8 0 15 -4 15 -10 0 -12 28 -2 33 13 2 7 3 0 1 -15 l-3 -27
34 36 c34 36 35 36 35 13 0 -17 3 -21 8 -12 5 7 16 10 25 6 20 -7 22 6 5 26
-11 12 -10 12 5 0 16 -12 20 -12 27 0 5 9 5 20 -2 27 -8 10 -6 13 6 13 9 0 16
-4 16 -10 0 -5 9 -10 20 -10 14 0 18 -5 13 -17 -6 -16 -4 -16 15 1 26 23 29
46 5 46 -12 0 -14 3 -7 10 12 12 47 2 38 -11 -3 -5 1 -9 8 -9 7 0 19 -9 26
-21 7 -11 18 -19 25 -16 6 2 20 -6 29 -17 17 -20 19 -20 32 -3 18 23 30 22 23
-3 -3 -11 -2 -20 2 -20 14 0 43 38 37 48 -3 5 3 12 13 15 17 4 18 2 10 -20
-12 -31 -11 -43 1 -43 6 0 10 7 10 15 0 8 7 15 16 15 8 0 12 -4 9 -10 -9 -14
7 -12 29 5 10 8 23 12 27 9 14 -8 29 32 17 44 -9 9 -8 12 4 12 9 0 19 6 21 13
3 7 6 5 6 -5 1 -19 31 -26 31 -8 0 6 5 10 11 10 6 0 8 -9 4 -22 -7 -23 -7 -23
8 -3 9 11 12 21 7 23 -11 4 -1 32 11 32 5 0 9 -8 9 -18 0 -14 8 -17 41 -17 23
0 44 -6 48 -14 5 -8 22 -14 39 -15 22 -1 28 -5 24 -16 -4 -11 -1 -11 15 3 20
17 20 17 15 -10 -5 -28 -5 -28 17 -9 21 19 21 19 21 -4 0 -22 1 -23 20 -5 11
10 23 15 27 12 3 -4 1 -7 -5 -7 -7 0 -12 -7 -12 -15 0 -20 16 -19 24 1 10 25
-4 63 -20 57 -19 -7 -18 11 2 27 8 8 14 9 13 4 -4 -21 2 -26 16 -14 9 8 15 8
15 2 0 -6 -4 -12 -9 -14 -5 -2 -7 -15 -4 -30 3 -15 9 -26 13 -23 5 3 6 14 3
25 -3 12 0 20 6 20 7 0 10 -4 6 -9 -3 -5 -1 -12 4 -16 6 -3 15 4 21 15 6 12 7
20 1 20 -5 0 -9 9 -8 21 1 17 3 18 12 5 10 -13 13 -12 23 4 9 15 7 19 -11 24
-20 5 -20 7 -5 18 9 7 23 27 32 43 l15 30 1 -29 0 -29 19 21 c24 28 30 28 24
0 -4 -20 -3 -21 9 -8 7 8 29 15 48 14 19 0 40 2 45 5 6 3 19 7 30 8 40 6 75
26 73 41 -2 8 3 16 10 18 7 1 8 0 3 -2 -5 -3 2 -16 16 -30 23 -23 26 -24 43
-9 12 11 20 13 25 6 3 -6 -1 -11 -10 -11 -27 0 -28 -29 -4 -65 27 -40 44 -44
59 -15 6 11 16 20 22 20 6 0 3 -9 -7 -20 -10 -11 -14 -20 -9 -20 5 0 2 -5 -6
-11 -12 -8 -11 -9 5 -6 11 2 19 9 17 15 -1 7 2 13 8 13 5 1 16 2 23 3 6 1 15
-5 18 -13 4 -11 7 -11 20 1 8 8 20 13 27 10 6 -2 12 2 12 10 0 10 2 10 10 -2
7 -11 21 -1 69 50 34 36 61 70 61 77 0 7 5 13 11 13 5 0 8 4 5 8 -3 5 3 18 14
30 18 19 27 41 34 88 2 10 9 18 15 17 6 -2 11 2 11 8 0 5 9 29 19 52 11 24 23
55 26 70 4 15 12 27 17 27 6 0 5 6 -2 15 -10 12 -10 15 4 15 9 0 16 -7 16 -15
0 -8 5 -15 11 -15 5 0 7 5 3 12 -5 8 0 9 14 6 16 -4 22 -2 22 9 0 12 3 13 13
4 8 -6 17 -8 20 -5 4 4 11 -6 17 -21 10 -27 11 -27 37 -9 15 9 43 18 61 20 19
1 38 8 42 14 5 9 9 9 14 1 7 -10 -14 -39 -31 -44 -24 -7 24 -74 49 -69 12 2
16 -1 12 -11 -3 -8 2 -17 10 -20 9 -4 16 -2 16 4 0 6 7 9 15 5 9 -3 15 1 15
11 0 13 3 13 15 3 8 -7 15 -9 15 -4 0 5 17 20 37 34 45 30 113 97 113 111 0 6
4 8 9 4 9 -5 32 26 37 48 1 4 3 10 4 15 1 4 2 10 1 15 0 4 6 7 15 7 10 0 14 6
10 15 -3 8 -1 15 4 15 6 0 10 7 10 15 0 8 4 15 9 15 5 0 11 14 15 31 6 32 27
59 46 59 7 0 10 -7 7 -15 -4 -8 -2 -17 4 -20 5 -4 7 -11 4 -16 -4 -5 -2 -9 4
-9 6 0 8 -7 5 -15 -8 -19 10 -19 30 0 8 8 17 11 20 6 4 -5 2 -11 -3 -13 -5 -1
-13 -16 -17 -32 -6 -24 -4 -28 9 -23 11 4 14 2 11 -8 -7 -17 30 -15 64 4 14 7
22 8 22 1 0 -5 -4 -10 -10 -10 -5 0 -9 -3 -8 -7 0 -5 -2 -16 -7 -26 -9 -22 1
-35 17 -19 7 7 20 12 31 12 12 0 16 4 11 13 -6 9 -4 9 7 0 12 -12 38 -19 27
-7 -7 7 44 60 55 56 4 -1 7 3 7 9 0 6 9 23 19 38 11 15 23 39 26 54 4 15 12
27 17 27 5 0 8 6 5 13 -2 6 5 20 15 29 11 9 17 23 13 30 -4 7 3 2 14 -11 16
-18 21 -20 21 -7 0 18 16 22 22 6 5 -15 56 11 61 32 3 9 0 19 -7 22 -6 2 0 5
13 5 20 1 21 3 11 16 -10 12 -10 15 4 15 17 0 21 10 8 25 -4 6 -6 9 -3 8 5 -3
41 69 41 84 0 7 7 13 16 13 8 0 12 4 9 10 -3 5 2 9 12 8 36 -3 84 14 79 28 -7
17 10 19 18 2 3 -9 9 -7 21 7 9 11 18 18 21 15 2 -3 11 8 19 24 13 24 13 31 3
38 -9 5 -6 8 10 8 24 0 30 15 10 23 -8 3 -6 6 5 6 19 1 24 31 5 31 -9 0 -8 4
2 11 12 8 12 12 2 16 -10 4 -10 8 -1 20 10 11 10 16 0 22 -9 6 -5 10 13 15 25
6 37 26 15 26 -6 0 -4 7 5 15 20 21 26 19 26 -10 0 -14 5 -25 10 -25 6 0 10 7
10 16 0 8 4 13 9 9 12 -7 91 24 91 35 0 5 -6 11 -12 14 -7 3 -3 3 10 0 19 -5
22 -1 22 25 0 18 -5 31 -12 31 -9 0 -8 4 2 10 12 8 12 12 2 18 -7 5 -10 16 -6
25 4 11 1 17 -7 17 -11 0 -11 3 1 11 11 7 12 12 3 15 -7 3 -9 12 -6 20 3 8 0
14 -7 14 -7 0 -10 7 -7 15 4 8 2 17 -4 20 -5 4 -7 10 -4 15 2 4 -4 34 -16 66
-11 33 -18 67 -15 77 2 9 0 17 -5 17 -5 0 -9 7 -9 15 0 8 5 15 11 15 6 0 8 9
4 23 -6 18 -5 20 6 10 7 -7 17 -13 21 -13 11 0 6 54 -7 63 -6 4 -5 11 5 18 12
8 9 9 -10 4 -20 -6 -23 -5 -13 6 10 10 9 15 -5 26 -14 11 -15 12 -1 7 13 -4
15 0 12 20 -3 14 -10 26 -15 26 -5 0 -6 5 -3 10 4 6 -1 24 -9 42 -9 17 -15 32
-14 33 2 2 27 13 56 25 28 12 53 28 54 34 0 6 2 23 3 39 1 15 6 31 10 35 5 4
5 -2 1 -12 -5 -14 -3 -16 6 -9 42 32 63 15 23 -18 -16 -14 -17 -20 -8 -30 10
-10 14 -9 19 5 5 13 9 14 14 6 4 -7 13 -9 19 -6 6 4 9 11 6 16 -3 4 2 7 11 6
25 -2 133 95 140 127 4 16 13 31 21 34 12 5 12 7 1 14 -10 7 -8 9 6 9 13 0 17
5 13 20 -3 11 -2 18 3 15 4 -2 10 8 13 23 3 15 9 35 12 45 4 10 2 17 -5 17 -6
0 -8 -4 -5 -10 3 -5 1 -10 -4 -10 -14 0 -14 17 -1 25 8 5 7 12 -2 22 -11 14
-10 15 10 9 13 -5 22 -3 22 3 0 6 -6 11 -12 11 -9 0 -8 3 2 10 12 7 10 13 -10
31 -14 13 -18 20 -9 16 12 -4 17 1 17 19 0 13 -5 24 -10 24 -5 0 -8 6 -5 13 2
6 -2 31 -8 54 -13 42 -13 43 19 63 27 17 28 20 9 20 -12 0 -24 -6 -26 -12 -4
-10 -8 -10 -16 2 -12 17 -4 33 13 27 7 -3 28 -2 47 3 19 4 26 8 17 9 -21 1
-24 21 -4 21 11 0 12 5 3 25 -7 14 -16 25 -21 25 -6 0 -1 7 10 15 19 14 19 14
0 15 -16 0 -17 3 -8 12 17 17 15 31 -3 24 -8 -3 -15 -1 -15 4 0 6 5 10 10 10
7 0 8 6 1 17 -7 13 -3 23 16 41 29 27 19 49 -25 54 -22 2 -28 9 -30 36 -2 20
1 32 9 32 6 0 9 -8 6 -20 -6 -22 -2 -25 16 -10 46 39 61 50 77 55 23 7 35 35
14 35 -12 0 -12 2 -2 14 7 7 17 12 23 10 5 -2 11 7 11 21 1 14 -2 22 -7 19 -5
-3 -9 -1 -9 5 0 5 6 12 13 14 8 4 9 8 2 14 -6 4 -10 20 -10 36 1 15 -2 27 -6
27 -6 0 -10 25 -11 78 0 12 -4 22 -9 22 -4 0 -6 7 -3 15 4 8 1 15 -6 15 -7 0
-10 7 -6 15 3 8 1 15 -5 15 -6 0 -9 6 -6 13 3 7 -1 21 -9 32 -8 10 -14 26 -14
35 0 9 -8 25 -18 36 -18 19 -34 50 -36 69 -2 17 -28 59 -45 72 -9 7 -12 13 -7
13 5 0 -1 9 -14 20 -13 11 -20 20 -15 20 4 0 -11 21 -34 48 -58 65 -61 69 -53
76 3 4 0 11 -8 16 -8 5 -12 12 -8 15 3 4 16 -3 27 -14 29 -29 32 -27 25 19 -5
29 -3 40 6 40 7 0 10 8 7 19 -3 14 -1 18 9 14 9 -3 14 1 14 11 0 9 6 16 13 15
6 -2 27 6 44 17 32 19 42 34 23 34 -5 0 -10 5 -10 11 0 6 9 8 20 4 12 -4 20
-2 20 5 0 6 -4 8 -10 5 -5 -3 -10 -2 -10 4 0 5 6 12 13 14 9 4 9 8 -2 15 -11
8 -11 10 0 14 11 4 8 10 -8 25 -21 18 -21 21 -5 37 15 15 15 18 2 26 -10 7
-11 10 -2 10 6 0 12 7 12 16 0 8 -4 13 -10 9 -5 -3 -7 9 -5 30 3 21 1 35 -6
35 -6 0 -9 7 -5 15 3 8 1 15 -5 15 -6 0 -8 9 -4 20 4 11 2 20 -4 20 -6 0 -8 7
-5 15 4 8 2 15 -4 15 -5 0 -15 20 -22 45 -7 25 -17 45 -22 45 -6 0 -8 6 -5 13
3 7 -4 24 -14 38 -10 13 -19 28 -19 32 0 12 -36 57 -42 52 -2 -2 -5 7 -6 21
-1 14 -15 39 -32 54 -16 15 -30 32 -30 37 0 4 -14 16 -30 25 -20 11 -33 28
-36 47 -4 17 -10 28 -15 25 -5 -3 -9 4 -9 16 0 12 -4 19 -9 15 -19 -11 -16 31
3 48 19 17 19 17 0 17 -15 0 -16 2 -5 9 8 5 21 7 29 3 12 -4 14 -1 9 12 -4 10
-7 24 -7 32 0 9 -4 12 -10 9 -6 -3 -7 1 -4 9 4 9 1 16 -6 16 -7 0 -10 8 -7 20
3 11 1 20 -4 20 -5 0 -11 11 -15 24 -3 14 -13 27 -21 30 -8 4 -13 12 -10 20 3
8 -3 22 -13 31 -11 10 -17 21 -15 25 3 4 -5 10 -16 13 -12 3 -18 10 -15 16 4
5 1 13 -4 16 -6 4 -15 18 -21 31 -5 14 -22 33 -39 42 -16 9 -30 21 -30 25 0
12 -27 37 -39 37 -6 0 -10 3 -9 8 3 15 -22 63 -37 68 -8 4 -15 12 -15 20 0 8
-8 14 -17 14 -9 0 -14 2 -11 5 8 8 -73 86 -83 79 -5 -3 -6 2 -3 10 4 11 0 16
-10 16 -9 0 -16 4 -16 10 0 5 -6 9 -12 7 -7 -1 -12 4 -11 11 2 6 -4 12 -12 12
-8 0 -15 5 -15 11 0 6 -9 8 -20 4 -15 -5 -20 -2 -20 12 0 15 -2 16 -10 3 -5
-8 -10 -13 -11 -10 0 3 -2 22 -5 43 -2 20 -8 46 -14 57 -6 12 -7 21 0 25 5 3
7 12 4 20 -4 8 -10 12 -15 9 -5 -3 -17 1 -28 8 -17 12 -21 18 -21 34 0 4 -7 1
-15 -6 -12 -10 -15 -9 -15 4 0 14 -4 15 -21 5 -19 -10 -20 -9 -14 13 5 19 4
20 -5 8 -9 -11 -13 -12 -17 -2 -2 6 -11 12 -18 12 -12 0 -25 24 -31 59 -3 14
-48 67 -77 89 -9 7 -15 18 -12 23 4 5 -1 9 -9 9 -9 0 -16 4 -16 10 0 5 -3 9
-8 7 -4 -1 -18 8 -31 20 -13 12 -32 20 -42 18 -11 -2 -17 0 -14 5 5 7 -28 33
-45 35 -3 0 -23 12 -45 26 -46 30 -133 61 -146 53 -5 -3 -9 0 -9 6 0 7 -7 10
-15 7 -8 -4 -17 -2 -20 3 -4 6 -1 10 6 10 7 0 9 3 6 6 -4 4 -13 1 -22 -6 -12
-10 -15 -10 -15 4 0 9 -4 16 -10 16 -5 0 -10 -5 -10 -11 0 -5 -5 -7 -10 -4 -6
4 -7 11 -4 17 5 7 -1 9 -15 5 -13 -3 -20 -3 -17 0 8 8 -44 34 -54 28 -4 -3
-11 2 -14 11 -3 8 -10 13 -15 9 -5 -3 -12 -1 -16 4 -3 6 -12 8 -20 4 -8 -3
-15 -1 -15 5 0 5 -20 9 -45 9 -31 0 -45 -4 -45 -13 0 -8 -4 -14 -10 -14 -5 0
-10 5 -10 10 0 6 -11 3 -25 -6 -19 -12 -25 -13 -25 -3 0 10 -3 10 -12 1 -17
-17 -33 -15 -18 3 10 12 9 15 -8 15 -11 0 -22 5 -24 11 -2 6 -16 12 -30 12
-18 0 -25 4 -21 13 3 8 0 14 -6 14 -6 0 -11 -6 -11 -12 0 -9 -4 -8 -10 2 -9
13 -11 13 -20 0 -9 -13 -11 -13 -21 0 -8 12 -12 12 -16 2 -4 -10 -8 -10 -19
-1 -11 9 -14 9 -14 -1 0 -10 -3 -10 -15 0 -8 7 -15 8 -15 3z m-1900 -403 c0
-5 -2 -10 -4 -10 -3 0 -8 5 -11 10 -3 6 -1 10 4 10 6 0 11 -4 11 -10z m3140
-190 c0 -5 -2 -10 -4 -10 -3 0 -8 5 -11 10 -3 6 -1 10 4 10 6 0 11 -4 11 -10z
m-3432 -86 c-11 -11 -18 -12 -22 -5 -4 6 0 11 8 11 9 0 16 5 16 12 0 6 3 8 7
4 4 -3 0 -14 -9 -22z m3513 -37 c-7 -7 -8 -3 -4 13 5 18 3 21 -8 15 -11 -7
-11 -5 1 10 14 18 15 17 18 -5 2 -12 -1 -27 -7 -33z m-3541 2 c0 -6 -25 -19
-36 -19 -2 0 -4 11 -4 25 0 23 2 24 20 13 11 -7 20 -16 20 -19z m-80 -9 c0 -5
-4 -10 -10 -10 -5 0 -10 5 -10 10 0 6 5 10 10 10 6 0 10 -4 10 -10z m-499
-377 c-8 -15 -10 -15 -11 -2 0 17 10 32 18 25 2 -3 -1 -13 -7 -23z m-176 -134
c11 -17 -1 -21 -15 -4 -8 9 -8 15 -2 15 6 0 14 -5 17 -11z m-175 -180 c0 -5
-7 -9 -16 -9 -8 0 -12 -4 -9 -10 3 -5 0 -10 -7 -10 -8 0 -20 -9 -28 -20 -15
-21 -40 -27 -40 -9 0 5 5 7 10 4 6 -3 10 1 10 10 0 9 5 13 10 10 6 -3 10 -1
10 6 0 6 10 20 21 30 21 18 39 17 39 -2z m-410 -519 c0 -5 -4 -10 -9 -10 -6 0
-13 5 -16 10 -3 6 1 10 9 10 9 0 16 -4 16 -10z m-20 -30 c0 -5 -5 -10 -11 -10
-5 0 -7 5 -4 10 3 6 8 10 11 10 2 0 4 -4 4 -10z m5770 -409 c0 -5 -7 -11 -14
-14 -10 -4 -13 -1 -9 9 6 15 23 19 23 5z m-5892 -26 c-3 -3 -9 2 -12 12 -6 14
-5 15 5 6 7 -7 10 -15 7 -18z m2 -106 c0 -6 7 -9 15 -6 22 9 26 -8 4 -21 -16
-10 -19 -9 -19 3 0 15 -10 19 -40 16 -13 -2 -13 -1 0 8 20 14 40 14 40 0z
m265 -19 c8 -13 -5 -13 -25 0 -13 8 -13 10 2 10 9 0 20 -4 23 -10z m-37 -25
c-3 -3 -9 2 -12 12 -6 14 -5 15 5 6 7 -7 10 -15 7 -18z m5792 -755 c0 -5 -2
-10 -4 -10 -3 0 -8 5 -11 10 -3 6 -1 10 4 10 6 0 11 -4 11 -10z m-47 -136 c3
-4 -1 -13 -9 -21 -17 -18 -29 -11 -21 12 7 16 19 20 30 9z m-19 -229 c-4 -8
-13 -15 -22 -15 -13 0 -12 3 4 15 24 18 25 18 18 0z m-6014 -111 c0 -2 -9 -4
-20 -4 -11 0 -20 4 -20 9 0 5 9 7 20 4 11 -3 20 -7 20 -9z m-40 -89 c10 -12
10 -15 -3 -15 -8 0 -17 7 -21 15 -3 8 -2 15 3 15 5 0 14 -7 21 -15z m-150 -76
c0 -5 -4 -9 -10 -9 -5 0 -10 7 -10 16 0 8 5 12 10 9 6 -3 10 -10 10 -16z m170
-9 c0 -5 -2 -10 -4 -10 -3 0 -8 5 -11 10 -3 6 -1 10 4 10 6 0 11 -4 11 -10z
m-56 -72 c-3 -5 -12 -4 -20 3 -19 16 -18 18 6 12 11 -3 17 -9 14 -15z m26 -28
c0 -5 -2 -10 -4 -10 -3 0 -8 5 -11 10 -3 6 -1 10 4 10 6 0 11 -4 11 -10z m32
-22 c-7 -7 -12 -8 -12 -2 0 14 12 26 19 19 2 -3 -1 -11 -7 -17z m5703 -248 c3
-5 1 -10 -4 -10 -6 0 -11 5 -11 10 0 6 2 10 4 10 3 0 8 -4 11 -10z m-5605
-400 c0 -5 -4 -10 -10 -10 -5 0 -10 5 -10 10 0 6 5 10 10 10 6 0 10 -4 10 -10z
m5425 -450 c3 -6 -1 -7 -9 -4 -18 7 -21 14 -7 14 6 0 13 -4 16 -10z m-4900
-50 c3 -5 1 -10 -4 -10 -6 0 -11 5 -11 10 0 6 2 10 4 10 3 0 8 -4 11 -10z m15
-40 c0 -5 -4 -10 -10 -10 -5 0 -10 5 -10 10 0 6 5 10 10 10 6 0 10 -4 10 -10z
m-15 -26 c20 -16 19 -16 -4 -9 -16 5 -21 4 -17 -4 4 -6 14 -11 22 -11 17 0 19
-26 2 -36 -6 -4 -8 -3 -5 3 8 13 -18 37 -31 30 -4 -3 -14 -1 -22 5 -12 8 -12
9 3 4 12 -4 17 0 17 14 0 24 8 25 35 4z m-25 -54 c0 -5 -7 -10 -15 -10 -8 0
-15 5 -15 10 0 6 7 10 15 10 8 0 15 -4 15 -10z m45 -41 c11 -17 -1 -21 -15 -4
-8 9 -8 15 -2 15 6 0 14 -5 17 -11z m34 -75 c2 -2 2 -7 -2 -10 -3 -3 -16 2
-29 11 l-23 17 25 -7 c14 -4 27 -9 29 -11z m-44 -14 c8 -13 -5 -13 -25 0 -13
8 -13 10 2 10 9 0 20 -4 23 -10z m-115 -184 c0 -3 -4 -8 -10 -11 -5 -3 -10 -1
-10 4 0 6 5 11 10 11 6 0 10 -2 10 -4z m-30 -56 c0 -5 -2 -10 -4 -10 -3 0 -8
5 -11 10 -3 6 -1 10 4 10 6 0 11 -4 11 -10z m-80 -39 c0 -17 -18 -21 -24 -6
-3 9 0 15 9 15 8 0 15 -4 15 -9z m340 -31 c0 -4 -8 -10 -17 -14 -10 -3 -24 -9
-31 -12 -8 -4 -10 0 -6 10 3 9 13 16 21 16 8 0 11 4 8 10 -3 6 1 7 9 4 9 -3
16 -10 16 -14z m3320 -204 c0 -11 -19 -15 -25 -6 -3 5 1 10 9 10 9 0 16 -2 16
-4z m-3070 -88 c12 4 12 2 3 -8 -10 -11 -15 -11 -28 0 -8 7 -15 18 -15 24 0 6
6 4 13 -5 7 -9 19 -14 27 -11z m3375 -14 c-39 -38 -45 -40 -45 -21 0 8 12 19
26 25 14 7 23 16 20 20 -2 4 4 9 15 9 16 2 13 -5 -16 -33z m-3275 -38 c0 -3
-4 -8 -10 -11 -5 -3 -10 -1 -10 4 0 6 5 11 10 11 6 0 10 -2 10 -4z m35 -26 c3
-5 1 -10 -4 -10 -6 0 -11 5 -11 10 0 6 2 10 4 10 3 0 8 -4 11 -10z m2374 -18
c-7 -11 -24 -26 -38 -32 -20 -9 -22 -13 -11 -20 8 -5 19 -5 25 0 7 6 15 2 23
-11 10 -16 9 -24 -3 -43 -9 -13 -23 -27 -31 -30 -9 -3 -13 -10 -9 -15 3 -5 1
-12 -5 -16 -5 -3 -10 1 -10 10 0 12 -6 14 -26 9 l-26 -7 26 26 c26 26 34 47
17 47 -5 0 -12 -6 -15 -12 -3 -7 -3 -2 0 11 4 14 1 27 -7 32 -10 6 -8 9 8 9
12 0 30 11 41 25 11 14 25 25 31 25 6 0 11 5 11 12 0 6 3 9 6 6 3 -3 0 -15 -7
-26z m-2402 -4 c-3 -8 -6 -5 -6 6 -1 11 2 17 5 13 3 -3 4 -12 1 -19z m382 -48
c6 0 11 -4 11 -10 0 -16 -27 -12 -34 6 -3 8 -11 12 -17 8 -7 -4 -9 -3 -5 4 3
6 2 13 -4 17 -5 3 -10 11 -10 16 0 6 11 -1 24 -15 13 -15 28 -26 35 -26z
m-370 15 c-10 -10 -18 -11 -29 -4 -13 9 -12 10 3 5 11 -3 20 0 24 10 3 8 8 12
11 9 3 -3 -1 -12 -9 -20z m50 3 c-2 -2 -17 -14 -33 -28 -27 -23 -28 -23 -17
-3 10 20 25 30 45 32 5 1 7 0 5 -1z m206 -28 c-3 -5 -11 -10 -16 -10 -6 0 -7
5 -4 10 3 6 11 10 16 10 6 0 7 -4 4 -10z m2002 -137 c-11 -12 -16 -12 -22 -2
-6 8 -4 10 4 5 8 -5 14 0 18 15 4 14 8 18 11 10 2 -7 -2 -20 -11 -28z m-1862
7 c-3 -5 2 -10 11 -10 10 0 15 -3 11 -6 -10 -10 -39 5 -32 16 3 5 8 10 11 10
3 0 2 -4 -1 -10z m1678 3 c-7 -2 -13 -9 -13 -14 0 -6 5 -7 12 -3 7 5 8 3 3 -5
-5 -9 -11 -9 -17 -3 -12 12 -2 32 15 31 9 0 9 -2 0 -6z m-1913 -57 c0 -2 -7
-6 -15 -10 -8 -3 -15 -1 -15 4 0 6 7 10 15 10 8 0 15 -2 15 -4z m180 -6 c0 -5
-2 -10 -4 -10 -3 0 -8 5 -11 10 -3 6 -1 10 4 10 6 0 11 -4 11 -10z m-60 -10
c0 -5 -4 -10 -10 -10 -5 0 -10 5 -10 10 0 6 5 10 10 10 6 0 10 -4 10 -10z
m1770 0 c0 -5 -4 -10 -10 -10 -5 0 -10 5 -10 10 0 6 5 10 10 10 6 0 10 -4 10
-10z m-400 -71 c0 -5 -4 -9 -10 -9 -5 0 -10 7 -10 16 0 8 5 12 10 9 6 -3 10
-10 10 -16z m-500 -19 c0 -10 -38 -1 -45 10 -2 4 7 5 20 2 14 -2 25 -8 25 -12z
m185 -16 c9 3 13 2 10 -4 -9 -14 -34 -12 -51 4 -21 22 -17 32 6 11 10 -9 26
-15 35 -11z m195 12 c0 -3 -4 -8 -10 -11 -5 -3 -10 -1 -10 4 0 6 5 11 10 11 6
0 10 -2 10 -4z m-510 -30 c0 -3 -4 -8 -10 -11 -5 -3 -10 -1 -10 4 0 6 5 11 10
11 6 0 10 -2 10 -4z m479 -17 c-16 -10 -23 -4 -14 10 3 6 11 8 17 5 6 -4 5 -9
-3 -15z m-509 -15 c0 -8 -4 -12 -10 -9 -5 3 -10 10 -10 16 0 5 5 9 10 9 6 0
10 -7 10 -16z"/>
<path d="M6920 5010 c0 -5 5 -10 10 -10 6 0 10 5 10 10 0 6 -4 10 -10 10 -5 0
-10 -4 -10 -10z"/>
<path d="M6960 3862 c0 -5 7 -16 16 -23 14 -12 16 -11 13 5 -4 20 -29 35 -29
18z"/>
<path d="M695 3530 c-3 -5 1 -10 10 -10 9 0 13 5 10 10 -3 6 -8 10 -10 10 -2
0 -7 -4 -10 -10z"/>
<path d="M675 3400 c-3 -5 -1 -10 4 -10 6 0 11 5 11 10 0 6 -2 10 -4 10 -3 0
-8 -4 -11 -10z"/>
<path d="M1554 1494 c3 -9 6 -20 6 -26 0 -6 6 -6 15 2 12 10 12 14 0 26 -18
19 -29 18 -21 -2z"/>
<path d="M1400 1460 c0 -5 5 -10 10 -10 6 0 10 5 10 10 0 6 -4 10 -10 10 -5 0
-10 -4 -10 -10z"/>
<path d="M1653 1332 c-15 -5 -20 -11 -14 -20 6 -9 12 -8 26 8 10 11 16 20 14
19 -2 -1 -14 -4 -26 -7z"/>
<path d="M5710 1320 c0 -5 5 -10 10 -10 6 0 10 5 10 10 0 6 -4 10 -10 10 -5 0
-10 -4 -10 -10z"/>
<path d="M1665 1300 c-3 -5 3 -10 15 -10 12 0 18 5 15 10 -3 6 -10 10 -15 10
-5 0 -12 -4 -15 -10z"/>
<path d="M2100 885 c-18 -21 -3 -32 16 -13 10 9 12 18 6 22 -5 3 -15 -1 -22
-9z"/>
<path d="M4243 792 c-9 -23 7 -27 27 -6 20 20 20 20 -1 20 -12 0 -24 -6 -26
-14z"/>
<path d="M4397 756 c-9 -24 -10 -23 13 -29 23 -6 25 2 7 27 -13 18 -14 18 -20
2z"/>
<path d="M2290 741 c0 -6 5 -13 10 -16 6 -3 10 1 10 9 0 9 -4 16 -10 16 -5 0
-10 -4 -10 -9z"/>
<path d="M4540 736 c0 -9 5 -16 10 -16 6 0 10 4 10 9 0 6 -4 13 -10 16 -5 3
-10 -1 -10 -9z"/>
<path d="M2310 705 c-7 -9 -8 -15 -2 -15 5 0 12 7 16 15 3 8 4 15 2 15 -2 0
-9 -7 -16 -15z"/>
<path d="M3186 643 c-6 -14 -5 -15 5 -6 7 7 10 15 7 18 -3 3 -9 -2 -12 -12z"/>
</g>
</svg>
